<?xml version="1.0" encoding="UTF-8" standalone="no"?>
<!DOCTYPE svg PUBLIC "-//W3C//DTD SVG 1.1//EN" "http://www.w3.org/Graphics/SVG/1.1/DTD/svg11.dtd">
<svg width="100%" height="100%" viewBox="0 0 600 129" version="1.1" xmlns="http://www.w3.org/2000/svg" xmlns:xlink="http://www.w3.org/1999/xlink" xml:space="preserve" xmlns:serif="http://www.serif.com/" style="fill-rule:evenodd;clip-rule:evenodd;stroke-linejoin:round;stroke-miterlimit:2;">
    <g transform="matrix(1,0,0,1,-27,-261.3)">
        <path d="M170.5,343.2C171.1,349.2 176.6,359.4 192.3,359.4C206,359.4 212.6,350.7 212.6,342.2C212.6,334.5 207.4,328.3 197.1,326.1L189.7,324.5C186.8,324 184.9,322.4 184.9,319.8C184.9,316.8 187.9,314.6 191.6,314.6C197.6,314.6 199.8,318.5 200.2,321.6L212,318.9C211.4,313.3 206.4,303.8 191.5,303.8C180.2,303.8 171.9,311.6 171.9,320.9C171.9,328.2 176.5,334.3 186.6,336.5L193.5,338.1C197.5,339 199.1,340.9 199.1,343.2C199.1,346 196.9,348.4 192.2,348.4C186,348.4 183,344.6 182.6,340.4L170.5,343.2ZM257.8,357.8L271.3,357.8C271.1,356 270.8,352.4 270.8,348.3L270.8,305.4L256.7,305.4L256.7,335.8C256.7,341.9 253.1,346.1 246.8,346.1C240.2,346.1 237.2,341.4 237.2,335.6L237.2,305.4L223,305.4L223,338.5C223,349.9 230.2,359.1 242.9,359.1C248.4,359.1 254.5,357 257.4,352.1C257.3,354.3 257.5,356.7 257.8,357.8ZM300,378L300,352.7C302.6,356.2 307.9,359.1 315.1,359.1C329.9,359.1 339.8,347.4 339.8,331.5C339.8,316 331,304.3 315.7,304.3C307.8,304.3 302,307.8 299.6,311.9L299.6,305.5L285.9,305.5L285.9,378L300,378ZM325.8,331.6C325.8,341 320.1,346.4 312.8,346.4C305.6,346.4 299.7,340.9 299.7,331.6C299.7,322.3 305.5,316.9 312.8,316.9C320,316.9 325.8,322.3 325.8,331.6ZM347.7,343.5C347.7,351.7 354.5,359.3 365.7,359.3C373.5,359.3 378.5,355.7 381.1,351.5C381.1,353.5 381.3,356.4 381.6,357.8L394.6,357.8C394.3,356 394,352.3 394,349.5L394,323.7C394,313.2 387.8,303.8 371.3,303.8C357.3,303.8 349.7,312.8 348.9,321L361.4,323.7C361.8,319.1 365.2,315.2 371.4,315.2C377.4,315.2 380.2,318.3 380.2,322C380.2,323.8 379.2,325.3 376.3,325.7L363.4,327.6C354.6,328.9 347.7,334.1 347.7,343.5ZM368.7,348.7C364.1,348.7 361.9,345.7 361.9,342.6C361.9,338.6 364.8,336.5 368.4,336L380.2,334.2L380.2,336.5C380.1,345.9 374.6,348.7 368.7,348.7ZM421.9,357.8L421.9,351.4C424.7,355.9 430.2,359.1 437.4,359.1C452.3,359.1 462.1,347.3 462.1,331.4C462.1,315.9 453.3,304 438,304C430.2,304 424.5,307.4 422.2,311.1L422.2,280.7L408.3,280.7L408.3,357.7L421.9,357.7L421.9,357.8ZM448,331.5C448,341.1 442.3,346.4 435,346.4C427.9,346.4 421.9,341 421.9,331.5C421.9,321.9 427.9,316.7 435,316.7C442.2,316.7 448,321.9 448,331.5ZM470.1,343.5C470.1,351.7 476.9,359.3 488.1,359.3C495.9,359.3 500.9,355.7 503.5,351.5C503.5,353.5 503.7,356.4 504,357.8L517,357.8C516.7,356 516.4,352.3 516.4,349.5L516.4,323.7C516.4,313.2 510.2,303.8 493.7,303.8C479.7,303.8 472.1,312.8 471.3,321L483.8,323.7C484.2,319.1 487.6,315.2 493.8,315.2C499.8,315.2 502.6,318.3 502.6,322C502.6,323.8 501.6,325.3 498.7,325.7L485.8,327.6C477,328.9 470.1,334.1 470.1,343.5ZM491,348.7C486.4,348.7 484.2,345.7 484.2,342.6C484.2,338.6 487.1,336.5 490.7,336L502.5,334.2L502.5,336.5C502.5,345.9 497,348.7 491,348.7ZM526.1,343.2C526.7,349.2 532.2,359.4 547.9,359.4C561.6,359.4 568.2,350.7 568.2,342.2C568.2,334.5 563,328.3 552.7,326.1L545.3,324.5C542.4,324 540.5,322.4 540.5,319.8C540.5,316.8 543.5,314.6 547.2,314.6C553.2,314.6 555.4,318.5 555.8,321.6L567.6,318.9C567,313.3 562,303.8 547.1,303.8C535.8,303.8 527.5,311.6 527.5,320.9C527.5,328.2 532.1,334.3 542.2,336.5L549.1,338.1C553.1,339 554.7,340.9 554.7,343.2C554.7,346 552.5,348.4 547.8,348.4C541.6,348.4 538.6,344.6 538.2,340.4L526.1,343.2ZM589.7,325.6C590,320.8 594.1,315.3 601.4,315.3C609.5,315.3 612.9,320.4 613.1,325.6L589.7,325.6ZM614.5,339.3C612.8,344 609.2,347.3 602.6,347.3C595.6,347.3 589.7,342.3 589.4,335.4L626.8,335.4C626.8,335.2 627,333.1 627,331C627,314.2 617.3,303.9 601.2,303.9C587.8,303.9 575.5,314.8 575.5,331.5C575.5,349.2 588.1,359.5 602.5,359.5C615.4,359.5 623.7,351.9 626.3,342.9L614.5,339.3Z" style="fill:rgb(31,31,31);fill-rule:nonzero;"/>
    </g>
    <g transform="matrix(1,0,0,1,-27,-261.3)">
        <path d="M32.6,340.3C29.5,340.3 27,337.8 27,334.7C27,333.5 27.4,332.3 28.1,331.4L30.2,328.4L78.7,262.9C79.1,262.4 79.7,262 80.4,262C81.6,262 82.5,262.9 82.5,264.1L82.5,340.2L32.6,340.2L32.6,340.3Z" style="fill:rgb(62,207,142);fill-rule:nonzero;"/>
    </g>
    <g transform="matrix(1,0,0,1,-27,-261.3)">
        <path d="M132.6,312C135.7,312 138.2,314.5 138.2,317.6C138.2,318.8 137.8,320 137.1,320.9L135,323.9L86.5,389.4C86.1,389.9 85.5,390.3 84.8,390.3C83.6,390.3 82.7,389.4 82.7,388.2L82.7,312L132.6,312Z" style="fill:url(#_Linear1);fill-rule:nonzero;"/>
    </g>
    <g transform="matrix(1,0,0,1,-27,-261.3)">
        <path d="M132.6,312C135.7,312 138.2,314.5 138.2,317.6C138.2,318.8 137.8,320 137.1,320.9L135,323.9L86.5,389.4C86.1,389.9 85.5,390.3 84.8,390.3C83.6,390.3 82.7,389.4 82.7,388.2L82.7,312L132.6,312Z" style="fill:url(#_Linear2);fill-rule:nonzero;"/>
    </g>
    <defs>
        <linearGradient id="_Linear1" x1="0" y1="0" x2="1" y2="0" gradientUnits="userSpaceOnUse" gradientTransform="matrix(41.4172,16.1616,-16.1616,41.4172,78.2882,339.142)"><stop offset="0" style="stop-color:rgb(36,147,97);stop-opacity:1"/><stop offset="1" style="stop-color:rgb(62,207,142);stop-opacity:1"/></linearGradient>
        <linearGradient id="_Linear2" x1="0" y1="0" x2="1" y2="0" gradientUnits="userSpaceOnUse" gradientTransform="matrix(20.675,36.2112,-36.2112,20.675,77.277,294.445)"><stop offset="0" style="stop-color:black;stop-opacity:0.2"/><stop offset="1" style="stop-color:black;stop-opacity:0"/></linearGradient>
    </defs>
</svg>
